<svg style="width: 28px; height: 28px;" xmlns="http://www.w3.org/2000/svg" xmlns:xlink="http://www.w3.org/1999/xlink" viewBox="0 0 28 28" width="28" height="28"><path d="M2.4583333333333335 16.626283333333333C2.4583333333333335 15.084516666666667 3.7082066666666664 13.834616666666667 5.25 13.834616666666667L6.416666666666667 13.834616666666667C7.95846 13.834616666666667 9.208333333333334 15.084516666666667 9.208333333333334 16.626283333333333L9.208333333333334 20.70961666666667C9.208333333333334 22.251383333333333 7.95846 23.501283333333337 6.416666666666667 23.501283333333337L5.25 23.501283333333337C3.7082066666666664 23.501283333333337 2.4583333333333335 22.251383333333333 2.4583333333333335 20.70961666666667L2.4583333333333335 16.626283333333333zM5.25 15.334616666666665C4.5366333333333335 15.334616666666665 3.9583333333333335 15.912883333333335 3.9583333333333335 16.626283333333333L3.9583333333333335 20.70961666666667C3.9583333333333335 21.42301666666667 4.5366333333333335 22.001283333333337 5.25 22.001283333333337L6.416666666666667 22.001283333333337C7.130040000000001 22.001283333333337 7.708333333333335 21.42301666666667 7.708333333333335 20.70961666666667L7.708333333333335 16.626283333333333C7.708333333333335 15.912883333333335 7.130040000000001 15.334616666666665 6.416666666666667 15.334616666666665L5.25 15.334616666666665z" fill="currentColor" style="--darkreader-inline-fill: currentColor;" data-darkreader-inline-fill=""></path><path d="M10.625000000000002 6.709476666666667C10.625000000000002 5.167683333333334 11.874906666666668 3.9178100000000007 13.416666666666668 3.9178100000000007L14.583333333333334 3.9178100000000007C16.1251 3.9178100000000007 17.375 5.167683333333334 17.375 6.709476666666667L17.375 20.709500000000002C17.375 22.251266666666666 16.1251 23.50116666666667 14.583333333333334 23.50116666666667L13.416666666666668 23.50116666666667C11.874906666666668 23.50116666666667 10.625000000000002 22.251266666666666 10.625000000000002 20.709500000000002L10.625000000000002 6.709476666666667zM13.416666666666668 5.41781C12.703266666666666 5.41781 12.125 5.996103333333333 12.125 6.709476666666667L12.125 20.709500000000002C12.125 21.422816666666666 12.703266666666666 22.00116666666667 13.416666666666668 22.00116666666667L14.583333333333334 22.00116666666667C15.296733333333336 22.00116666666667 15.875000000000002 21.422816666666666 15.875000000000002 20.709500000000002L15.875000000000002 6.709476666666667C15.875000000000002 5.996103333333333 15.296733333333336 5.41781 14.583333333333334 5.41781L13.416666666666668 5.41781z" fill="currentColor" style="--darkreader-inline-fill: currentColor;" data-darkreader-inline-fill=""></path><path d="M18.791666666666668 12.8345C18.791666666666668 11.292683333333335 20.041566666666668 10.042810000000001 21.583333333333336 10.042810000000001L22.75 10.042810000000001C24.291766666666668 10.042810000000001 25.541666666666668 11.292683333333335 25.541666666666668 12.8345L25.541666666666668 20.709500000000002C25.541666666666668 22.251266666666666 24.291766666666668 23.50116666666667 22.75 23.50116666666667L21.583333333333336 23.50116666666667C20.041566666666668 23.50116666666667 18.791666666666668 22.251266666666666 18.791666666666668 20.709500000000002L18.791666666666668 12.8345zM21.583333333333336 11.542816666666667C20.869933333333336 11.542816666666667 20.291666666666668 12.121100000000002 20.291666666666668 12.8345L20.291666666666668 20.709500000000002C20.291666666666668 21.422816666666666 20.869933333333336 22.00116666666667 21.583333333333336 22.00116666666667L22.75 22.00116666666667C23.4634 22.00116666666667 24.041666666666668 21.422816666666666 24.041666666666668 20.709500000000002L24.041666666666668 12.8345C24.041666666666668 12.121100000000002 23.4634 11.542816666666667 22.75 11.542816666666667L21.583333333333336 11.542816666666667z" fill="currentColor" style="--darkreader-inline-fill: currentColor;" data-darkreader-inline-fill=""></path></svg>